<mxfile host="app.diagrams.net" modified="2023-11-23T09:11:36.523Z" agent="Mozilla/5.0 (Macintosh; Intel Mac OS X 10_15_7) AppleWebKit/537.36 (KHTML, like Gecko) Chrome/119.0.0.0 Safari/537.36" version="22.1.3" etag="i4yBvSCZXgx-LDPyCAp0" type="github">
  <diagram name="Page-1" id="LbJquXeahdp7IvyI3gh7">
    <mxGraphModel>
      <root>
        <mxCell id="0" />
        <mxCell id="1" parent="0" />
      </root>
    </mxGraphModel>
  </diagram>
</mxfile>
